<svg width="57" height="48" viewBox="0 0 57 48" fill="none" xmlns="http://www.w3.org/2000/svg">
<path d="M32.3648 48V33.5664C32.3648 24.5035 34.3629 17.1189 38.3592 11.4126C42.4606 5.5944 48.5075 1.79021 56.5 0V10.9091C52.9244 11.8042 50.085 13.4825 47.9817 15.944C45.8784 18.2937 44.5113 21.1469 43.8803 24.5035H53.3451V48H32.3648ZM0.5 48V33.5664C0.5 24.5035 2.49812 17.1189 6.49437 11.4126C10.5958 5.5944 16.5901 1.79021 24.4775 0V10.9091C20.9019 11.8042 18.0624 13.4825 15.9592 15.944C13.8559 18.2937 12.4887 21.1469 11.8577 24.5035H21.3225V48H0.5Z" fill="#0047B2"/>
</svg>
