<svg width="32" height="32" viewBox="0 0 32 32" fill="none" xmlns="http://www.w3.org/2000/svg">
<rect x="0.5" y="0.5" width="31" height="31" stroke="white"/>
<g clip-path="url(#clip0_229_1612)">
<path d="M11.5515 23V12.8795H8.15729V23H11.5515ZM9.85482 11.4969C11.0384 11.4969 11.7752 10.7198 11.7752 9.74862C11.7531 8.75556 11.0385 8 9.87728 8C8.71627 8 7.95703 8.75558 7.95703 9.74862C7.95703 10.7198 8.69359 11.4969 9.83266 11.4969H9.85472H9.85482ZM13.4302 23H16.8244V17.3482C16.8244 17.0458 16.8464 16.7436 16.936 16.5274C17.1814 15.923 17.7399 15.2971 18.6775 15.2971C19.9057 15.2971 20.3971 16.2252 20.3971 17.5857V22.9999H23.7911V17.1969C23.7911 14.0883 22.1165 12.6419 19.8834 12.6419C18.0523 12.6419 17.2484 13.6563 16.8018 14.3471H16.8244V12.8793H13.4302C13.4748 13.829 13.4302 22.9998 13.4302 22.9998L13.4302 23Z" fill="white"/>
</g>
<defs>
<clipPath id="clip0_229_1612">
<rect width="16" height="15" fill="white" transform="translate(8 8)"/>
</clipPath>
</defs>
</svg>
