<svg width="20" height="14" viewBox="0 0 20 14" fill="none" xmlns="http://www.w3.org/2000/svg">
<path d="M18.8681 3.22938C18.6677 2.12192 17.9908 1.41099 16.9326 1.21745C16.4959 1.13728 16.0513 1.07887 15.6078 1.05883C13.727 0.973791 11.8453 0.907079 9.96395 0.833496C9.96337 0.852966 9.9628 0.872435 9.96223 0.891904C9.52961 0.891904 9.0967 0.885606 8.66436 0.89305C6.87059 0.923113 5.07654 0.942869 3.29222 1.16562C2.18246 1.30391 1.41371 1.96387 1.18265 3.06103C1.05352 3.67375 0.983089 4.30192 0.932125 4.92695C0.823039 6.26375 0.796125 7.60486 0.891182 8.94367C0.950163 9.77169 1.02575 10.6023 1.16347 11.4203C1.34413 12.4917 2.08254 13.2 3.12215 13.3544C3.73773 13.4457 4.35932 13.5236 4.98063 13.5439C6.88777 13.6057 8.79607 13.663 10.7041 13.6725C12.6061 13.6822 14.5089 13.637 16.4035 13.438C16.8919 13.3864 17.3732 13.3085 17.8001 13.0351C18.5062 12.583 18.8274 11.9036 18.9044 11.1056C19.0084 10.0259 19.1137 8.94367 19.1492 7.86054C19.2005 6.31071 19.1449 4.76146 18.8681 3.22938ZM8.18679 10.0185V4.54558C9.77526 5.45864 11.3471 6.36225 12.9468 7.28189C11.3494 8.20039 9.77784 9.10372 8.18679 10.0185Z" fill="#555555"/>
</svg>
